<svg version="1.2" baseProfile="tiny-ps" xmlns="http://www.w3.org/2000/svg" viewBox="0 0 30 30" width="30" height="30">
	<title>user (7) 1-svg</title>
	<defs>
		<clipPath clipPathUnits="userSpaceOnUse" id="cp1">
			<path d="M0 0L30 0L30 30L0 30L0 0Z" />
		</clipPath>
	</defs>
	<style>
		tspan { white-space:pre }
		.shp0 { fill: #37416a } 
	</style>
	<g id="Clip-Path" clip-path="url(#cp1)">
		<g id="Layer">
			<path id="Layer" fill-rule="evenodd" class="shp0" d="M25.6 25.6C19.74 31.46 10.26 31.46 4.4 25.6C-1.47 19.74 -1.46 10.26 4.4 4.39C10.26 -1.47 19.74 -1.47 25.6 4.39C31.47 10.26 31.46 19.74 25.6 25.6ZM27.53 15C27.53 8.09 21.91 2.47 15 2.47C8.09 2.47 2.47 8.09 2.47 15C2.47 21.91 8.09 27.53 15 27.53C21.91 27.53 27.53 21.91 27.53 15Z" />
			<path id="Layer" fill-rule="evenodd" class="shp0" d="M21.24 20.01C21.24 20.69 20.69 21.24 20.01 21.24C19.33 21.24 18.77 20.69 18.77 20.01C18.77 17.92 17.08 16.23 15 16.23C12.92 16.23 11.23 17.92 11.23 20.01C11.23 20.69 10.68 21.24 10 21.24C9.32 21.24 8.76 20.69 8.76 20.01C8.76 17.69 10.03 15.67 11.91 14.59C10.24 12.13 12 8.76 15 8.76C18 8.76 19.76 12.13 18.09 14.59C19.97 15.67 21.24 17.69 21.24 20.01ZM13.73 12.5C13.73 13.2 14.3 13.77 15 13.77C15.7 13.77 16.27 13.2 16.27 12.5C16.27 11.8 15.7 11.23 15 11.23C14.3 11.23 13.73 11.8 13.73 12.5Z" />
		</g>
	</g>
</svg>