<svg width="30" height="30" viewBox="0 0 30 30" fill="none" xmlns="http://www.w3.org/2000/svg">
<g clip-path="url(#clip0)">
<path d="M25.6042 4.39486C19.7436 -1.46579 10.2572 -1.46672 4.39583 4.39486C-1.46481 10.2554 -1.46575 19.7418 4.39583 25.6032C10.2564 31.4638 19.7428 31.4648 25.6042 25.6032C31.4648 19.7427 31.4657 10.2563 25.6042 4.39486ZM14.9999 27.5321C8.08922 27.5321 2.4669 21.9097 2.4669 14.999C2.4669 8.0883 8.08922 2.46598 14.9999 2.46598C21.9107 2.46598 27.533 8.0883 27.533 14.999C27.533 21.9097 21.9107 27.5321 14.9999 27.5321Z" fill="#21D1CC"/>
<path d="M18.0922 14.5896C19.7625 12.1296 17.9974 8.7627 15.0007 8.7627C12.0032 8.7627 10.2388 12.1301 11.9091 14.5898C10.0315 15.666 8.76367 17.6903 8.76367 20.0052C8.76367 20.6855 9.31516 21.237 9.99547 21.237C10.6758 21.237 11.2273 20.6855 11.2273 20.0052C11.2273 17.9244 12.92 16.2316 15.0008 16.2316C17.0816 16.2316 18.7744 17.9244 18.7744 20.0052C18.7744 20.6855 19.3259 21.237 20.0062 21.237C20.6865 21.237 21.238 20.6855 21.238 20.0052C21.2379 17.6901 19.97 15.6657 18.0922 14.5896ZM15.0007 11.2262C15.7014 11.2262 16.2715 11.7964 16.2715 12.4971C16.2715 13.1979 15.7014 13.768 15.0007 13.768C14.2999 13.768 13.7297 13.1979 13.7297 12.4971C13.7297 11.7964 14.2998 11.2262 15.0007 11.2262Z" fill="#21D1CC"/>
</g>
<defs>
<clipPath id="clip0">
<rect width="30" height="30" fill="white"/>
</clipPath>
</defs>
</svg>
