<svg version="1.2" baseProfile="tiny-ps" xmlns="http://www.w3.org/2000/svg" viewBox="0 0 60 60" width="60" height="60">
	<title>Ellipse 15(3)-svg</title>
	<style>
		tspan { white-space:pre }
		.shp0 { fill: #fd7269 } 
		.shp1 { fill: #ffffff } 
	</style>
	<path id="Layer" class="shp0" d="M30 60C13.41 60 0 46.59 0 30C0 13.41 13.41 0 30 0C46.59 0 60 13.41 60 30C60 46.59 46.59 60 30 60Z" />
	<path id="Layer" fill-rule="evenodd" class="shp1" d="M43.75 14.94L43.75 45.06C43.75 45.58 43.33 46 42.81 46L17.19 46C16.67 46 16.25 45.58 16.25 45.06L16.25 14.94C16.25 14.42 16.67 14 17.19 14L42.81 14C43.33 14 43.75 14.42 43.75 14.94ZM41.88 15.88L18.13 15.88L18.13 44.13L20.63 44.13L20.63 34.63C20.63 32.73 22.17 31.19 24.06 31.19L26.88 31.19L26.88 29.92C25.75 29.2 25 27.94 25 26.5L25 24C25 20.73 27.66 18.06 30.94 18.06C34.21 18.06 36.88 20.73 36.88 24L36.88 31.32C38.32 31.73 39.38 33.05 39.38 34.63L39.38 44.13L41.88 44.13L41.88 15.88ZM26.88 33.06L26.88 34.31L31.25 34.31L31.25 29.92C30.62 30.33 29.87 30.56 29.06 30.56C28.96 30.56 28.85 30.56 28.75 30.55L28.75 32.13C28.75 32.64 28.33 33.06 27.81 33.06L26.88 33.06ZM35 24C35 21.76 33.18 19.94 30.94 19.94C30.61 19.94 30.3 19.98 30 20.05C31.79 20.47 33.13 22.08 33.13 24L33.13 31.98C33.67 31.59 34.31 31.33 35 31.23L35 24ZM33.13 44.13L33.13 42.56C33.13 42.05 32.7 41.63 32.19 41.63L25.94 41.63C25.42 41.63 25 41.21 25 40.69L25 33.06L24.06 33.06C23.2 33.06 22.5 33.76 22.5 34.63L22.5 44.13L33.13 44.13ZM26.88 24L26.88 26.5C26.88 27.71 27.86 28.69 29.06 28.69C30.27 28.69 31.25 27.71 31.25 26.5L31.25 24C31.25 22.79 30.27 21.81 29.06 21.81C27.86 21.81 26.88 22.79 26.88 24ZM37.5 44.13L37.5 34.63C37.5 33.76 36.8 33.06 35.94 33.06L35.63 33.06C34.25 33.06 33.13 34.18 33.13 35.56L33.13 39.91C34.22 40.3 35 41.34 35 42.56L35 44.13L37.5 44.13ZM31.25 39.75L31.25 36.19L26.88 36.19L26.88 39.75L31.25 39.75Z" />
</svg>