<svg width="16" height="16" viewBox="0 0 16 16" fill="none" xmlns="http://www.w3.org/2000/svg">
<path d="M7.0555 0.390467C7.57612 -0.130156 8.42039 -0.130156 8.9411 0.390467C9.46181 0.91109 9.46181 1.75536 8.9411 2.27607L4.55052 6.66665H13.776C14.5124 6.66665 15.1094 7.26363 15.1094 7.99999C15.1094 8.73635 14.5124 9.33332 13.776 9.33332H4.55052L8.94101 13.7239C9.46172 14.2445 9.46172 15.0888 8.94101 15.6095C8.68074 15.8698 8.3395 16 7.99825 16C7.65701 16 7.31576 15.8698 7.0555 15.6094L0.388822 8.94275C-0.13189 8.42212 -0.13189 7.57786 0.388822 7.05714L7.0555 0.390467Z" fill="#37416A"/>
</svg>
