<svg version="1.2" baseProfile="tiny-ps" xmlns="http://www.w3.org/2000/svg" viewBox="0 0 100 100" width="100" height="100">
	<title>Ellipse 15-svg</title>
	<style>
		tspan { white-space:pre }
		.shp0 { fill: #f6f9f9;stroke: #21d1cc;stroke-width: 2 } 
		.shp1 { fill: #21d1cc } 
	</style>
	<path id="Layer" class="shp0" d="M50 99C22.9 99 1 77.1 1 50C1 22.9 22.9 1 50 1C77.1 1 99 22.9 99 50C99 77.1 77.1 99 50 99Z" />
	<path id="Layer" fill-rule="evenodd" class="shp1" d="M50.67 69.44C44.23 69.44 39 64.26 39 57.89C39 53.25 41.78 49.24 45.78 47.41L39.92 44.51C39.36 44.23 39 43.66 39 43.03L39 33.13C39 31.3 40.5 29.82 42.33 29.82L59 29.82C60.84 29.82 62.33 31.3 62.33 33.13L62.33 43.03C62.33 43.66 61.98 44.23 61.41 44.51L55.55 47.41C59.55 49.24 62.33 53.25 62.33 57.89C62.33 64.26 57.1 69.44 50.67 69.44ZM59 36.43L59 33.13L42.33 33.13L42.33 36.43L59 36.43ZM59 39.73L42.33 39.73L42.33 42.01L50.67 46.14L59 42.01L59 39.73ZM59 57.89C59 53.34 55.26 49.63 50.67 49.63C46.07 49.63 42.33 53.34 42.33 57.89C42.33 62.44 46.07 66.14 50.67 66.14C55.26 66.14 59 62.44 59 57.89ZM53.17 57.89C53.17 56.52 52.05 55.41 50.67 55.41C49.75 55.41 49 54.67 49 53.76C49 52.85 49.75 52.11 50.67 52.11C53.88 52.11 56.5 54.7 56.5 57.89C56.5 58.8 55.75 59.54 54.83 59.54C53.91 59.54 53.17 58.8 53.17 57.89Z" />
</svg>