<svg width="31" height="22" viewBox="0 0 31 22" fill="none" xmlns="http://www.w3.org/2000/svg">
<path fill-rule="evenodd" clip-rule="evenodd" d="M7.7 0C5.87746 0 4.4 1.47746 4.4 3.3V8.91002C1.88954 9.41962 0 11.6391 0 14.3V17.05C0 18.265 0.984974 19.25 2.2 19.25H3.3L3.3 20.9C3.3 21.5075 3.79249 22 4.4 22C5.00751 22 5.5 21.5075 5.5 20.9V19.25H25.3V21.175C25.3 21.6306 25.6694 22 26.125 22C26.5806 22 26.95 21.6306 26.95 21.175V19.25H28.6C29.815 19.25 30.8 18.265 30.8 17.05V14.3C30.8 11.6391 28.9105 9.41962 26.4 8.91002V3.3C26.4 1.47746 24.9225 0 23.1 0H7.7ZM25.3 11H23.0998V11.0001H14.2998V11H7.7H5.5C3.67746 11 2.2 12.4775 2.2 14.3V17.05H28.6V14.3C28.6 12.4775 27.1225 11 25.3 11ZM24.2 8.8V3.3C24.2 2.69249 23.7075 2.2 23.1 2.2H7.7C7.09249 2.2 6.6 2.69249 6.6 3.3V8.8H7.7V7.7C7.7 5.87746 9.17746 4.4 11 4.4H13.2C14.0452 4.4 14.8161 4.71772 15.4 5.24025C15.9838 4.71778 16.7547 4.4001 17.5998 4.4001H19.7998C21.6223 4.4001 23.0998 5.87756 23.0998 7.7001V8.8H24.2ZM20.8998 8.8V7.7001C20.8998 7.09258 20.4073 6.6001 19.7998 6.6001H17.5998C16.9983 6.6001 16.5096 7.08282 16.5 7.68197L16.5 7.7V8.8H20.8998ZM14.2998 8.8V7.7001L14.2999 7.68188C14.2902 7.08272 13.8015 6.6 13.2 6.6H11C10.3925 6.6 9.9 7.09249 9.9 7.7V8.8H14.2998Z" fill="#37416A"/>
</svg>
