<svg width="60" height="60" viewBox="0 0 60 60" fill="none" xmlns="http://www.w3.org/2000/svg">
<circle opacity="0.2" cx="30" cy="30" r="29.25" stroke="#37416A" stroke-width="1.5"/>
<path d="M39.859 36.4118C36.6516 34.4322 36.8245 27.9983 36.8272 27.9018C36.8272 24.8983 34.8314 22.3534 32.0967 21.5191V20.9433C32.0965 19.872 31.2247 19 30.1532 19C29.0817 19 28.2098 19.872 28.2098 20.9434V21.5192C25.475 22.3541 23.4793 24.9039 23.4798 27.9344C23.5418 29.7335 23.1177 34.7637 20.4475 36.4118C20.089 36.6332 19.9208 37.0659 20.0359 37.4717C20.151 37.8771 20.5211 38.1571 20.9428 38.1571H26.5877C26.9606 39.7827 28.4161 41 30.1532 41C31.8903 41 33.3458 39.7827 33.7188 38.1571H39.3636C39.7853 38.1571 40.1554 37.8771 40.2706 37.4717C40.3856 37.0659 40.2174 36.6332 39.859 36.4118ZM29.3076 36.2713H23.2595C25.5114 33.0931 25.3733 28.129 25.3649 27.9019C25.3649 25.2622 27.513 23.1143 30.1538 23.1143C32.7936 23.1143 34.9415 25.2622 34.9421 27.8694C34.9333 28.1235 34.7952 33.0925 37.0469 36.2713H29.3076Z" fill="#37416A"/>
</svg>
