<svg width="16" height="16" viewBox="0 0 16 16" fill="none" xmlns="http://www.w3.org/2000/svg">
<path d="M0.727273 16H15.2727C15.6744 16 16 15.6744 16 15.2727V2.18182C16 1.78017 15.6744 1.45455 15.2727 1.45455H11.1515V0.727273C11.1515 0.325624 10.8259 0 10.4242 0C10.0226 0 9.69697 0.325624 9.69697 0.727273V1.45455H6.30303V0.727273C6.30303 0.325624 5.97741 0 5.57576 0C5.17411 0 4.84848 0.325624 4.84848 0.727273V1.45455H0.727273C0.325624 1.45455 0 1.78017 0 2.18182V15.2727C0 15.6744 0.325624 16 0.727273 16ZM1.45455 14.5455V5.81818H14.5455V14.5455H1.45455ZM14.5455 2.90909V4.36364H1.45455V2.90909H14.5455Z" fill="#37416A"/>
</svg>
