<svg width="18" height="18" viewBox="0 0 18 18" fill="none" xmlns="http://www.w3.org/2000/svg">
<path d="M0.818182 18H17.1818C17.6337 18 18 17.6337 18 17.1818V2.45455C18 2.00269 17.6337 1.63636 17.1818 1.63636H12.5455V0.818182C12.5455 0.366327 12.1791 0 11.7273 0C11.2754 0 10.9091 0.366327 10.9091 0.818182V1.63636H7.09091V0.818182C7.09091 0.366327 6.72458 0 6.27273 0C5.82087 0 5.45455 0.366327 5.45455 0.818182V1.63636H0.818182C0.366327 1.63636 0 2.00269 0 2.45455V17.1818C0 17.6337 0.366327 18 0.818182 18ZM1.63636 16.3636V6.54545H16.3636V16.3636H1.63636ZM16.3636 3.27273V4.90909H1.63636V3.27273H16.3636Z" fill="#37416A"/>
</svg>
