<svg version="1.2" baseProfile="tiny-ps" xmlns="http://www.w3.org/2000/svg" viewBox="0 0 100 100" width="100" height="100">
	<title>Ellipse 15-svg</title>
	<style>
		tspan { white-space:pre }
		.shp0 { fill: #f6f9f9;stroke: #21d1cc;stroke-width: 2 } 
		.shp1 { fill: #21d1cc } 
	</style>
	<path id="Layer" class="shp0" d="M50 99C22.9 99 1 77.1 1 50C1 22.9 22.9 1 50 1C77.1 1 99 22.9 99 50C99 77.1 77.1 99 50 99Z" />
	<path id="Layer" fill-rule="evenodd" class="shp1" d="M70 37.84L70 41.63C70 46.17 66.66 49.94 62.29 50.68L62.29 52.88C62.29 53.4 62.03 53.88 61.6 54.17C58.59 56.16 55.15 57.33 51.56 57.59L51.56 60.54L53.67 60.54C57.97 60.54 61.48 64.01 61.48 68.27C61.48 69.13 60.78 69.82 59.92 69.82L40.63 69.82C39.76 69.82 39.06 69.13 39.06 68.27C39.06 64.01 42.57 60.54 46.88 60.54L48.44 60.54L48.44 57.59C44.85 57.33 41.41 56.16 38.4 54.17C37.97 53.88 37.71 53.4 37.71 52.88L37.71 50.68C33.34 49.94 30 46.17 30 41.63L30 37.84C30 36.98 30.7 36.29 31.56 36.29L37.71 36.29L37.71 31.75C37.71 30.9 38.41 30.2 39.27 30.2L60.73 30.2C61.59 30.2 62.29 30.9 62.29 31.75L62.29 36.29L68.44 36.29C69.3 36.29 70 36.98 70 37.84ZM37.71 39.39L33.13 39.39L33.13 41.63C33.13 44.45 35.07 46.83 37.71 47.52L37.71 39.39ZM53.67 63.63L46.88 63.63C44.84 63.63 43.1 64.92 42.46 66.73L58.09 66.73C57.44 64.92 55.7 63.63 53.67 63.63ZM59.17 33.3L40.83 33.3L40.83 52.03C46.48 55.4 53.52 55.4 59.17 52.03L59.17 33.3ZM66.88 39.39L62.29 39.39L62.29 47.52C64.93 46.83 66.88 44.45 66.88 41.63L66.88 39.39Z" />
</svg>