<svg width="24" height="24" viewBox="0 0 24 24" fill="none" xmlns="http://www.w3.org/2000/svg">
<path d="M12 0C5.37258 0 0 5.37258 0 12C0 18.6274 5.37258 24 12 24C18.6274 24 24 18.6274 24 12C24 5.37258 18.6274 0 12 0ZM12 22.5C6.201 22.5 1.5 17.799 1.5 12C1.5 6.201 6.201 1.5 12 1.5C17.799 1.5 22.5 6.201 22.5 12C22.5 17.799 17.799 22.5 12 22.5Z" fill="#21D1CC"/>
<path d="M14.7825 4.7168L13.7175 5.7818L15.4425 7.4993H7.5C6.67158 7.4993 6 8.17088 6 8.9993V11.2493H7.5V8.9993H15.4425L13.725 10.7168L14.7825 11.7743L17.7825 8.7743C18.0733 8.48175 18.0733 8.00934 17.7825 7.7168L14.7825 4.7168Z" fill="#21D1CC"/>
<path d="M16.5006 14.9996H8.55811L10.2756 13.2821L9.21811 12.2246L6.21811 15.2246C5.9273 15.5172 5.9273 15.9896 6.21811 16.2821L9.21811 19.2821L10.2756 18.2246L8.55811 16.4996H16.5006C17.329 16.4996 18.0006 15.828 18.0006 14.9996V12.7496H16.5006V14.9996Z" fill="#21D1CC"/>
</svg>
