<svg width="24" height="24" viewBox="0 0 24 24" fill="none" xmlns="http://www.w3.org/2000/svg">
<path d="M12 0C5.37258 0 0 5.37258 0 12C0 18.6274 5.37258 24 12 24C18.6274 24 24 18.6274 24 12C24 5.37258 18.6274 0 12 0ZM12 22.5C6.201 22.5 1.5 17.799 1.5 12C1.5 6.201 6.201 1.5 12 1.5C17.799 1.5 22.5 6.201 22.5 12C22.5 17.799 17.799 22.5 12 22.5Z" fill="#21D1CC"/>
<path d="M14.7825 4.71777L13.7175 5.78277L15.4425 7.50027H7.5C6.67158 7.50027 6 8.17185 6 9.00027V11.2503H7.5V9.00027H15.4425L13.725 10.7178L14.7825 11.7753L17.7825 8.77527C18.0733 8.48273 18.0733 8.01032 17.7825 7.71777L14.7825 4.71777Z" fill="#21D1CC"/>
<path d="M16.5006 15.0001H8.55811L10.2756 13.2826L9.21811 12.2251L6.21811 15.2251C5.9273 15.5176 5.9273 15.99 6.21811 16.2826L9.21811 19.2826L10.2756 18.2251L8.55811 16.5001H16.5006C17.329 16.5001 18.0006 15.8285 18.0006 15.0001V12.7501H16.5006V15.0001Z" fill="#21D1CC"/>
</svg>
