<svg width="16" height="16" viewBox="0 0 16 16" fill="none" xmlns="http://www.w3.org/2000/svg">
<path d="M8.05388 15.6095C7.53326 16.1302 6.68899 16.1302 6.16828 15.6095C5.64756 15.0889 5.64756 14.2446 6.16828 13.7239L10.5589 9.33335H1.33334C0.596979 9.33335 0 8.73637 0 8.00001C0 7.26365 0.596979 6.66668 1.33334 6.66668L10.5589 6.66668L6.16836 2.27609C5.64765 1.75547 5.64765 0.911201 6.16836 0.39049C6.42863 0.130222 6.76988 0 7.11112 0C7.45237 0 7.79361 0.130223 8.05388 0.390579L14.7206 7.05725C15.2413 7.57788 15.2413 8.42214 14.7206 8.94286L8.05388 15.6095Z" fill="#37416A"/>
</svg>
