<svg version="1.2" baseProfile="tiny-ps" xmlns="http://www.w3.org/2000/svg" viewBox="0 0 60 60" width="60" height="60">
	<title>Ellipse 15(3)-svg</title>
	<style>
		tspan { white-space:pre }
		.shp0 { fill: #fd7269 } 
		.shp1 { fill: #ffffff } 
	</style>
	<path id="Layer" class="shp0" d="M30 60C13.41 60 0 46.59 0 30C0 13.41 13.41 0 30 0C46.59 0 60 13.41 60 30C60 46.59 46.59 60 30 60Z" />
	<path id="Layer" fill-rule="evenodd" class="shp1" d="M14 30C14 21.18 21.18 14 30 14C38.82 14 46 21.18 46 30C46 38.82 38.82 46 30 46C21.18 46 14 38.82 14 30ZM25.85 42.42C25.62 41.92 25.4 41.37 25.19 40.75C24.8 39.55 24.47 38.19 24.23 36.73C22.43 37 20.84 37.4 19.57 37.9C21.15 39.98 23.33 41.57 25.85 42.42ZM18.07 35.38C19.64 34.7 21.63 34.18 23.86 33.84C23.76 32.6 23.7 31.31 23.7 30C23.7 28.69 23.76 27.4 23.86 26.16C21.63 25.82 19.64 25.3 18.07 24.62C17.32 26.27 16.91 28.09 16.91 30C16.91 31.91 17.32 33.73 18.07 35.38ZM27.95 20.17C27.62 21.19 27.34 22.34 27.12 23.59C28.06 23.65 29.02 23.68 30 23.68C30.98 23.68 31.95 23.65 32.88 23.59C32.67 22.34 32.39 21.19 32.05 20.17C31.23 17.71 30.32 16.91 30 16.91C29.69 16.91 28.78 17.71 27.95 20.17ZM26.76 26.48C26.66 27.61 26.61 28.79 26.61 30C26.61 31.21 26.66 32.39 26.76 33.52C27.81 33.45 28.89 33.41 30 33.41C31.11 33.41 32.2 33.45 33.25 33.52C33.35 32.39 33.4 31.21 33.4 30C33.4 28.79 33.35 27.61 33.25 26.48C32.2 26.55 31.11 26.59 30 26.59C28.89 26.59 27.81 26.55 26.76 26.48ZM41.94 24.62C40.36 25.3 38.38 25.82 36.14 26.16C36.25 27.4 36.3 28.69 36.3 30C36.3 31.31 36.25 32.6 36.14 33.84C38.38 34.18 40.36 34.7 41.94 35.38C42.68 33.73 43.09 31.91 43.09 30C43.09 28.09 42.68 26.27 41.94 24.62ZM32.05 39.83C32.39 38.81 32.67 37.66 32.88 36.41C31.95 36.35 30.98 36.32 30 36.32C29.02 36.32 28.06 36.35 27.12 36.41C27.34 37.66 27.62 38.81 27.95 39.83C28.78 42.29 29.69 43.09 30 43.09C30.32 43.09 31.23 42.29 32.05 39.83ZM40.43 37.9C39.17 37.4 37.57 37 35.78 36.73C35.53 38.19 35.21 39.55 34.81 40.75C34.6 41.37 34.38 41.92 34.15 42.42C36.68 41.57 38.86 39.98 40.43 37.9ZM34.15 17.58C34.38 18.08 34.6 18.63 34.81 19.25C35.21 20.45 35.53 21.81 35.78 23.27C37.57 23 39.17 22.6 40.43 22.1C38.86 20.02 36.68 18.43 34.15 17.58ZM19.57 22.1C20.84 22.6 22.43 23 24.23 23.27C24.47 21.81 24.8 20.45 25.19 19.25C25.4 18.63 25.62 18.08 25.85 17.58C23.33 18.43 21.15 20.02 19.57 22.1Z" />
</svg>