<svg width="30" height="20" viewBox="0 0 30 20" fill="none" xmlns="http://www.w3.org/2000/svg">
<path d="M0.937478 2.49995H29.0625C29.58 2.49995 30 1.9399 30 1.24997C30 0.559943 29.58 0 29.0625 0H0.937478C0.419956 0 0 0.560047 0 1.24997C0 1.9399 0.420034 2.49995 0.937478 2.49995Z" fill="#37416A"/>
<path d="M29.0625 8.75H0.937478C0.419956 8.75 0 9.31005 0 9.99997C0 10.6899 0.420034 11.2499 0.937478 11.2499H29.0625C29.58 11.2499 30 10.6899 30 9.99997C30 9.31005 29.58 8.75 29.0625 8.75Z" fill="#37416A"/>
<path d="M29.0625 17.5H10.3125C9.79496 17.5 9.375 18.06 9.375 18.75C9.375 19.44 9.79503 19.9999 10.3125 19.9999H29.0625C29.58 19.9999 30 19.4399 30 18.75C30.0001 18.0599 29.58 17.5 29.0625 17.5Z" fill="#21D1CC"/>
</svg>
