<svg width="60" height="60" viewBox="0 0 60 60" fill="none" xmlns="http://www.w3.org/2000/svg">
<circle opacity="0.2" cx="30" cy="30" r="29.25" stroke="#37416A" stroke-width="1.5"/>
<g clip-path="url(#clip0_307:3055)">
<path d="M39.2547 22.1186C38.1159 20.8834 36.5532 20.2031 34.8543 20.2031C33.5844 20.2031 32.4214 20.6046 31.3975 21.3963C30.8809 21.796 30.4127 22.2849 30 22.8556C29.5874 22.2851 29.1191 21.796 28.6023 21.3963C27.5786 20.6046 26.4156 20.2031 25.1457 20.2031C23.4468 20.2031 21.8839 20.8834 20.7451 22.1186C19.6199 23.3393 19 25.0071 19 26.8148C19 28.6754 19.6934 30.3785 21.182 32.1748C22.5137 33.7816 24.4277 35.4127 26.6441 37.3015C27.4009 37.9465 28.2588 38.6777 29.1495 39.4565C29.3848 39.6626 29.6868 39.7761 30 39.7761C30.313 39.7761 30.6152 39.6626 30.8501 39.4568C31.7409 38.6778 32.5993 37.9464 33.3564 37.301C35.5725 35.4126 37.4865 33.7816 38.8182 32.1746C40.3068 30.3785 41 28.6754 41 26.8146C41 25.0071 40.3801 23.3393 39.2547 22.1186Z" fill="#37416A"/>
</g>
<defs>
<clipPath id="clip0_307:3055">
<rect width="22" height="22" fill="white" transform="translate(19 19)"/>
</clipPath>
</defs>
</svg>
