<svg width="23" height="30" viewBox="0 0 23 30" fill="none" xmlns="http://www.w3.org/2000/svg">
<path fill-rule="evenodd" clip-rule="evenodd" d="M0 11.25C0 5.04688 5.04688 0 11.25 0C17.4531 0 22.5 5.04688 22.5 11.25C22.5 15.3819 17.8969 23.3813 14.9781 27.5H17.5C18.19 27.5 18.75 28.06 18.75 28.75C18.75 29.44 18.19 30 17.5 30H5C4.31 30 3.75 29.44 3.75 28.75C3.75 28.06 4.31 27.5 5 27.5H7.52187C4.60312 23.3813 0 15.3819 0 11.25ZM20 11.25C20 6.425 16.075 2.5 11.25 2.5C6.425 2.5 2.5 6.425 2.5 11.25C2.5 14.6219 7.16875 22.9669 10.2569 27.0075C10.7356 27.6338 11.7644 27.6338 12.2431 27.0075C15.3313 22.9669 20 14.6219 20 11.25ZM16.2502 12.4312V15C16.2502 16.3787 15.1289 17.5 13.7502 17.5H8.75019C7.37144 17.5 6.25019 16.3787 6.25019 15V12.4312L5.83644 12.8038C5.32269 13.2669 4.53269 13.2237 4.07081 12.7112C3.60894 12.1981 3.65081 11.4075 4.16394 10.9462L6.65894 8.70062L6.93394 8.45062C6.93675 8.44812 6.93972 8.44609 6.94269 8.44406C6.94566 8.44203 6.94863 8.44 6.95144 8.4375L10.4139 5.32062C10.8896 4.89313 11.6102 4.89313 12.0858 5.32062L15.5489 8.4375C15.5518 8.44 15.5547 8.44203 15.5577 8.44406C15.5607 8.44609 15.5636 8.44812 15.5664 8.45062L15.8414 8.70062L18.3364 10.9462C18.8496 11.4075 18.8914 12.1981 18.4296 12.7112C18.1827 12.985 17.8421 13.125 17.5002 13.125C17.2014 13.125 16.9027 13.0194 16.6639 12.8038L16.2502 12.4312ZM11.2502 7.93125L8.75019 10.1813V15H13.7502V10.1813L11.2502 7.93125Z" fill="#37416A"/>
</svg>
