<svg version="1.2" baseProfile="tiny-ps" xmlns="http://www.w3.org/2000/svg" viewBox="0 0 23 30" width="23" height="30">
	<title>hotel_inactive-svg</title>
	<style>
		tspan { white-space:pre }
		.shp0 { fill: #21d1cc } 
	</style>
	<path id="Layer" fill-rule="evenodd" class="shp0" d="M0 11.25C0 5.05 5.05 0 11.25 0C17.45 0 22.5 5.05 22.5 11.25C22.5 15.38 17.9 23.38 14.98 27.5L17.5 27.5C18.19 27.5 18.75 28.06 18.75 28.75C18.75 29.44 18.19 30 17.5 30L5 30C4.31 30 3.75 29.44 3.75 28.75C3.75 28.06 4.31 27.5 5 27.5L7.52 27.5C4.6 23.38 0 15.38 0 11.25ZM20 11.25C20 6.42 16.07 2.5 11.25 2.5C6.42 2.5 2.5 6.42 2.5 11.25C2.5 14.62 7.17 22.97 10.26 27.01C10.74 27.63 11.76 27.63 12.24 27.01C15.33 22.97 20 14.62 20 11.25ZM16.25 12.43L16.25 15C16.25 16.38 15.13 17.5 13.75 17.5L8.75 17.5C7.37 17.5 6.25 16.38 6.25 15L6.25 12.43L5.84 12.8C5.32 13.27 4.53 13.22 4.07 12.71C3.61 12.2 3.65 11.41 4.16 10.95L6.66 8.7L6.93 8.45C6.94 8.45 6.94 8.45 6.94 8.44C6.95 8.44 6.95 8.44 6.95 8.44L10.41 5.32C10.89 4.89 11.61 4.89 12.09 5.32L15.55 8.44C15.55 8.44 15.55 8.44 15.56 8.44C15.56 8.45 15.56 8.45 15.57 8.45L15.84 8.7L18.34 10.95C18.85 11.41 18.89 12.2 18.43 12.71C18.18 12.98 17.84 13.13 17.5 13.13C17.2 13.13 16.9 13.02 16.66 12.8L16.25 12.43ZM11.25 7.93L8.75 10.18L8.75 15L13.75 15L13.75 10.18L11.25 7.93Z" />
</svg>