<svg width="80" height="81" viewBox="0 0 80 81" fill="none" xmlns="http://www.w3.org/2000/svg">
<path d="M21.8027 55.4439L1.80178 61.1672C-0.468478 61.8169 -0.639736 64.9549 1.55255 65.8394L10.6833 69.5235L14.403 78.5671C15.2952 80.7372 18.4636 80.5708 19.1201 78.3202L24.8984 58.5102C25.4438 56.6418 23.6925 54.903 21.8027 55.4439ZM16.3159 70.0908L14.9169 66.6894C14.663 66.0719 14.1683 65.5819 13.5448 65.3302L10.1106 63.9446L18.8371 61.4475L16.3159 70.0908Z" fill="#FD7269"/>
<path d="M68.7491 38.0132H18.7466C15.3002 38.0132 12.4963 35.236 12.4963 31.8225C12.4963 28.409 15.3002 25.6318 18.7466 25.6318H70.6718C71.5378 27.1106 73.1527 28.1081 74.9994 28.1081C77.7566 28.1081 79.9996 25.8864 79.9996 23.1555C79.9996 21.3265 78.9926 19.727 77.4995 18.8693C77.4995 17.3216 77.4995 5.06007 77.4995 3.34541C77.4995 1.97789 76.3802 0.869141 74.9994 0.869141H63.7488C62.368 0.869141 61.2487 1.97789 61.2487 3.34541V12.0123C61.2487 13.3799 62.368 14.4886 63.7488 14.4886H72.4993V18.8693C71.7424 19.3042 71.1109 19.9296 70.6718 20.6793H18.7466C12.5431 20.6793 7.49609 25.6781 7.49609 31.8225C7.49609 37.9669 12.5431 42.9657 18.7466 42.9657H68.7491C72.1955 42.9657 74.9994 45.7428 74.9994 49.1564C74.9994 52.5699 72.1955 55.347 68.7491 55.347H31.2473C29.8664 55.347 28.7471 56.4558 28.7471 57.8233C28.7471 59.1908 29.8664 60.2996 31.2473 60.2996H68.7491C74.9527 60.2996 79.9996 55.3008 79.9996 49.1564C79.9996 43.012 74.9527 38.0132 68.7491 38.0132ZM66.249 9.53608V5.82168H72.4993V9.53608H66.249Z" fill="#21D1CC"/>
</svg>
