<svg version="1.2" baseProfile="tiny-ps" xmlns="http://www.w3.org/2000/svg" viewBox="0 0 127 46" width="127" height="46">
	<title>logo-svg</title>
	<defs>
		<clipPath clipPathUnits="userSpaceOnUse" id="cp1">
			<path d="M0 0L126.12 0L126.12 45.9L0 45.9L0 0Z" />
		</clipPath>
	</defs>
	<style>
		tspan { white-space:pre }
		.shp0 { fill: #ffffff } 
		.shp1 { opacity: 0.302;fill: #ffffff } 
	</style>
	<g id="Clip-Path" clip-path="url(#cp1)">
		<g id="Layer">
			<path id="Layer" fill-rule="evenodd" class="shp0" d="M10.27 7.74L10.27 4.99C10.27 2.76 11.27 0.85 13.27 0.23C14.21 0.02 15.18 -0.05 16.15 0.02L22.5 0.02C23.28 -0.03 24.06 0.02 24.83 0.15C27.11 0.69 28.15 2.78 28.15 5.05L28.15 7.75L22.83 7.75C22.83 5.36 23.24 5.36 20.83 5.36L17.07 5.36C15.07 5.36 15.6 5.79 15.6 7.75L10.27 7.74ZM38.42 14.39L38.42 31.27C38.42 34.71 36.31 36.66 32.96 36.66L4.87 36.66C1.71 36.66 0 34.11 0 31.29L0 14.54C0 11.04 2.21 9.18 5.52 9.18L33.02 9.18C36.28 9.15 38.42 11.15 38.42 14.39ZM5.66 17.5L5.66 27.87L10.18 24.46C10.42 24.28 10.72 24.18 11.02 24.18C11.32 24.18 11.62 24.28 11.86 24.46L16.01 27.52C16.28 27.72 16.62 27.82 16.96 27.79C17.3 27.77 17.62 27.62 17.86 27.37L24.44 20.55C24.57 20.42 24.73 20.31 24.9 20.24C25.07 20.17 25.25 20.13 25.44 20.13C25.63 20.13 25.81 20.17 25.98 20.24C26.15 20.31 26.31 20.42 26.44 20.55L32.73 27.26L32.73 17.36C32.73 15.01 32.96 14.86 30.61 14.86L8.43 14.86C5.65 14.86 5.66 14.7 5.66 17.5ZM10.5 22.08C10.12 22.09 9.74 22.02 9.38 21.88C9.03 21.74 8.7 21.53 8.43 21.26C8.16 20.99 7.94 20.67 7.79 20.32C7.64 19.96 7.57 19.58 7.57 19.2C7.57 18.63 7.74 18.07 8.06 17.6C8.37 17.13 8.82 16.76 9.35 16.54C9.87 16.32 10.45 16.26 11.01 16.38C11.57 16.49 12.08 16.76 12.49 17.16C12.89 17.57 13.16 18.08 13.27 18.64C13.39 19.2 13.33 19.78 13.11 20.3C12.89 20.83 12.52 21.28 12.05 21.6C11.58 21.91 11.02 22.08 10.45 22.08L10.5 22.08Z" />
			<path id="Layer" fill-rule="evenodd" class="shp1" d="M19.39 41.65C24.64 41.65 28.9 42.6 28.9 43.78C28.9 44.96 24.64 45.9 19.39 45.9C14.14 45.9 9.87 44.95 9.87 43.78C9.87 42.61 14.13 41.65 19.39 41.65Z" />
			<path id="Layer" fill-rule="evenodd" class="shp0" d="M107.63 11.11C108.85 10.88 110.09 10.72 111.33 10.63C112.47 10.56 113.58 10.48 114.73 10.48C117.54 10.48 120.79 10.85 123.19 12.48C124.2 13.17 125 14.12 125.53 15.22C126.06 16.33 126.28 17.55 126.19 18.77C126.25 20.3 125.83 21.82 124.97 23.09C124.73 23.41 124.45 23.71 124.15 23.98C124.05 24.06 123.97 24.14 123.89 24.24C123.36 24.68 122.78 25.06 122.16 25.35L121.93 25.46C119.87 26.23 117.7 26.66 115.5 26.72L113.4 26.72L113.4 35.45L107.23 35.45L107.23 11.15L107.63 11.11ZM60.42 16.15L60.42 35.45L54.21 35.45L54.21 16.15L47 16.15L47 10.75L67.6 10.75L67.6 16.15L60.42 16.15ZM70.66 11.08C71.87 10.85 73.09 10.69 74.32 10.6C75.47 10.53 76.58 10.45 77.72 10.45C80.53 10.45 83.78 10.82 86.19 12.45C87.19 13.15 87.99 14.1 88.52 15.2C89.05 16.3 89.28 17.52 89.19 18.74C89.25 20.27 88.83 21.79 87.97 23.06C87.24 24.03 86.29 24.8 85.2 25.32L84.97 25.43L85.12 25.65C85.45 26.09 85.78 26.61 86.12 27.09C86.71 27.9 87.2 28.68 87.71 29.53C88.22 30.38 88.74 31.27 89.22 32.15C89.78 33.21 90.26 34.31 90.66 35.45L83.75 35.45C83.42 34.55 82.99 33.68 82.49 32.86C82.05 32.08 81.54 31.27 81.13 30.53C80.72 29.79 80.2 29.09 79.72 28.38C79.35 27.79 78.98 27.31 78.58 26.79L78.5 26.72L76.43 26.72L76.43 35.45L70.26 35.45L70.26 11.15L70.66 11.08ZM76.43 16L76.43 21.69L77.54 21.69C78.96 21.78 80.37 21.54 81.68 20.99C82.06 20.76 82.36 20.43 82.56 20.04C82.75 19.65 82.83 19.21 82.79 18.77C82.83 18.34 82.75 17.91 82.55 17.53C82.35 17.15 82.05 16.83 81.68 16.62C80.51 16.09 79.23 15.85 77.95 15.92C77.62 15.9 77.28 15.9 76.95 15.92C76.84 15.9 76.73 15.9 76.62 15.92L76.43 16ZM101.35 35.44L95.14 35.44L95.14 10.74L101.35 10.74L101.35 35.44ZM113.4 16L113.4 21.69L114.52 21.69C115.94 21.78 117.35 21.54 118.66 20.99C119.03 20.76 119.34 20.43 119.53 20.04C119.73 19.65 119.81 19.21 119.77 18.77C119.81 18.34 119.72 17.91 119.53 17.53C119.33 17.15 119.03 16.83 118.66 16.62C117.49 16.09 116.2 15.85 114.92 15.92C114.59 15.9 114.25 15.9 113.92 15.92C113.81 15.9 113.69 15.9 113.58 15.92L113.4 16Z" />
		</g>
	</g>
</svg>