<svg width="127" height="46" viewBox="0 0 127 46" fill="none" xmlns="http://www.w3.org/2000/svg">
<g clip-path="url(#clip0)">
<path fill-rule="evenodd" clip-rule="evenodd" d="M10.27 7.74068V4.99068C10.27 2.76068 11.27 0.850687 13.27 0.230687C14.2146 0.0207312 15.1849 -0.0500234 16.15 0.0206803H22.5C23.2791 -0.0264293 24.061 0.0172017 24.83 0.150685C27.11 0.690685 28.15 2.78068 28.15 5.05068V7.75069H22.83C22.83 5.36069 23.24 5.36069 20.83 5.36069H17.07C15.07 5.36069 15.6 5.79069 15.6 7.75069L10.27 7.74068ZM38.42 14.3907V31.2707C38.42 34.7107 36.31 36.6607 32.96 36.6607H4.87C1.71 36.6607 0 34.1107 0 31.2907V14.5407C0 11.0407 2.21 9.18068 5.52 9.18068H33.02C36.28 9.15068 38.42 11.1507 38.42 14.3907ZM5.66 17.5007V27.8707L10.18 24.4607C10.421 24.2758 10.7163 24.1756 11.02 24.1756C11.3238 24.1756 11.619 24.2758 11.86 24.4607L16.01 27.5207C16.2843 27.7238 16.623 27.8206 16.9632 27.793C17.3034 27.7654 17.622 27.6154 17.86 27.3707L24.44 20.5507C24.571 20.4189 24.7268 20.3143 24.8985 20.2429C25.0701 20.1715 25.2541 20.1347 25.44 20.1347C25.6259 20.1347 25.8099 20.1715 25.9815 20.2429C26.1532 20.3143 26.309 20.4189 26.44 20.5507L32.73 27.2607V17.3607C32.73 15.0107 32.96 14.8607 30.61 14.8607H8.42999C5.64999 14.8607 5.66 14.7007 5.66 17.5007ZM10.45 22.0807C11.0196 22.0807 11.5764 21.9118 12.05 21.5953C12.5237 21.2789 12.8928 20.8291 13.1108 20.3028C13.3288 19.7766 13.3858 19.1975 13.2747 18.6388C13.1635 18.0802 12.8892 17.567 12.4865 17.1642C12.0837 16.7614 11.5705 16.4872 11.0119 16.376C10.4532 16.2649 9.87412 16.3219 9.34787 16.5399C8.82162 16.7579 8.37183 17.127 8.05537 17.6006C7.73892 18.0742 7.57001 18.6311 7.57001 19.2007C7.56859 19.5835 7.64378 19.9628 7.79115 20.3161C7.93853 20.6694 8.15509 20.9897 8.42812 21.2581C8.70114 21.5265 9.02511 21.7375 9.38094 21.8788C9.73676 22.02 10.1172 22.0887 10.5 22.0807H10.45Z" fill="#38416A"/>
<path fill-rule="evenodd" clip-rule="evenodd" d="M19.3901 41.6504C24.6401 41.6504 28.9001 42.6004 28.9001 43.7804C28.9001 44.9604 24.6401 45.9004 19.3901 45.9004C14.1401 45.9004 9.87012 44.9504 9.87012 43.7804C9.87012 42.6104 14.1301 41.6504 19.3901 41.6504Z" fill="white" fill-opacity="0.3"/>
<path fill-rule="evenodd" clip-rule="evenodd" d="M107.23 11.1492V35.4492H113.4V26.7192H115.5C117.698 26.6556 119.87 26.2298 121.93 25.4592L122.16 25.3492C122.783 25.0578 123.365 24.6845 123.89 24.2392C123.966 24.1428 124.054 24.0556 124.15 23.9792C124.451 23.7092 124.726 23.4112 124.97 23.0892C125.825 21.8154 126.253 20.3023 126.19 18.7692C126.283 17.5501 126.055 16.3279 125.528 15.2244C125.002 14.1208 124.196 13.1743 123.19 12.4792C120.79 10.8492 117.54 10.4792 114.73 10.4792C113.58 10.4792 112.47 10.5592 111.33 10.6292C110.089 10.7203 108.853 10.8805 107.63 11.1092L107.23 11.1492ZM67.6 16.1492V10.7492H47V16.1492H54.21V35.4492H60.42V16.1492H67.6ZM70.26 11.1492V35.4492H76.43V26.7192H78.5L78.58 26.7892C78.98 27.3092 79.35 27.7892 79.72 28.3792C80.2 29.0892 80.72 29.7892 81.13 30.5292C81.54 31.2692 82.05 32.0792 82.49 32.8592C82.9933 33.6795 83.4153 34.5469 83.75 35.4492H90.66C90.2639 34.3145 89.7825 33.2113 89.22 32.1492C88.74 31.2692 88.22 30.3792 87.71 29.5292C87.2 28.6792 86.71 27.8992 86.12 27.0892C85.78 26.6092 85.45 26.0892 85.12 25.6492L84.97 25.4292L85.2 25.3192C86.2931 24.8019 87.2438 24.0262 87.97 23.0592C88.8254 21.7854 89.2527 20.2723 89.19 18.7392C89.2768 17.5208 89.046 16.3008 88.5202 15.1983C87.9943 14.0958 87.1915 13.1486 86.19 12.4492C83.78 10.8192 80.53 10.4492 77.72 10.4492C76.58 10.4492 75.47 10.5292 74.32 10.5992C73.092 10.6903 71.87 10.8505 70.66 11.0792L70.26 11.1492ZM76.62 15.9192C76.7291 15.8995 76.8409 15.8995 76.95 15.9192C77.283 15.8991 77.617 15.8991 77.95 15.9192C79.2315 15.85 80.5108 16.0901 81.68 16.6192C82.0506 16.8346 82.352 17.1514 82.5486 17.5323C82.7453 17.9132 82.829 18.3423 82.79 18.7692C82.833 19.2062 82.7516 19.6465 82.5552 20.0393C82.3588 20.4321 82.0554 20.7614 81.68 20.9892C80.3723 21.5382 78.9555 21.7777 77.54 21.6892H76.43V15.9992L76.62 15.9192ZM101.35 10.7392H95.14V35.4392H101.35V10.7492V10.7392ZM113.58 15.9192C113.692 15.8998 113.808 15.8998 113.92 15.9192C114.253 15.8989 114.587 15.8989 114.92 15.9192C116.205 15.8507 117.487 16.0907 118.66 16.6192C119.031 16.8346 119.332 17.1514 119.529 17.5323C119.725 17.9132 119.809 18.3423 119.77 18.7692C119.813 19.2062 119.732 19.6465 119.535 20.0393C119.339 20.4321 119.035 20.7614 118.66 20.9892C117.352 21.5382 115.935 21.7777 114.52 21.6892H113.4V15.9992L113.58 15.9192Z" fill="#38416A"/>
</g>
<defs>
<clipPath id="clip0">
<rect width="126.12" height="45.9" fill="white"/>
</clipPath>
</defs>
</svg>
