<svg width="320" height="120" xmlns="http://www.w3.org/2000/svg" class="main">
 <!-- Created with Method Draw - http://github.com/duopixel/Method-Draw/ -->

 <g id="Layer_1">
  <title>Layer 1</title>
  <g id="svg_1" text-anchor="none" font-size="none" font-weight="none" font-family="none" stroke-dashoffset="0" stroke-miterlimit="10" fill-rule="nonzero" fill="#FC5C64" stroke="null">
   <g id="svg_7" stroke="null">
    <g id="svg_6" stroke="null">
     <path id="svg_1" d="m38.86081,114.86176l0,-92.7228l22.9094,0l0,-19.17155l-60.77021,0l0,19.17155l18.68925,0l0,92.60222l19.17156,0.12058z" stroke="null"/>
     <path id="svg_2" d="m204.17025,114.98234l19.29213,-0.36173l34.48468,-105.26268l-18.32752,-5.90821l0,0.24115l-25.80322,78.85658l-24.95919,-76.56564l-18.20695,6.02879l33.52007,102.97174z" stroke="null"/>
     <path id="svg_3" d="m319.079,114.86176l0.12058,-19.17155l-28.45589,-0.12058l0,-89.94955l-19.17155,0l0.12058,109.00053l47.38628,0.24115z" stroke="null"/>
     <g id="svg_5" stroke="null">
      <path id="svg_4" d="m75.99808,116.91157l0.241,-113.46161l19.17193,0.12l3.85799,-0.12c27.9739,0 49.31583,18.56794 49.31583,38.58387c0,13.02196 -9.04297,24.83892 -24.95892,31.34989l44.13085,9.16397l-3.85899,18.80994l-68.60777,-14.34895l-0.12,30.0239l-19.17192,-0.12101zm25.83783,-103.27194c-12.67309,4.47969 -20.30969,17.40207 -18.12133,30.6643c1.14354,7.0031 4.93733,13.29789 10.59536,17.58013l9.71987,-7.91777c-1.36257,-2.66705 -0.73854,-5.91896 1.51454,-7.89221l1.08638,-0.95857c0.45558,-0.40362 0.95007,-0.7611 1.47619,-1.06721c-1.63442,-1.1598 -2.64865,-3.00345 -2.75326,-5.00481c-0.10461,-2.00142 0.7119,-3.94074 2.21646,-5.26464l2.35168,-2.07051c1.00356,-0.88028 2.18483,-1.53416 3.46362,-1.91714c1.5316,-0.46721 3.1572,-0.53539 4.72254,-0.1981l10.08413,2.17914l3.4764,-3.42528c1.01071,-0.98336 2.21384,-1.74708 3.53392,-2.24305c-6.63226,-11.69135 -20.69342,-16.944 -33.36652,-12.4643l0.00002,0.00002zm33.69243,18.63108l-5.59164,5.50218l-12.98539,-2.8118c-1.20294,-0.25779 -2.45687,0.06934 -3.38055,0.88188l-2.35168,2.07051c-0.25536,0.22482 -0.38649,0.55897 -0.3523,0.89747c0.03425,0.33844 0.22967,0.63962 0.52485,0.80878l10.49951,6.06454l-3.59782,3.54031l-4.95899,-0.84993c-1.09437,-0.19056 -2.21602,0.12691 -3.04824,0.86271l-1.09277,0.96496c-0.26137,0.22808 -0.39384,0.57016 -0.35429,0.91479c0.03956,0.34458 0.24609,0.64774 0.55239,0.81063l6.79305,3.63617l2.74789,7.20204c0.12263,0.3247 0.39729,0.5683 0.73433,0.65125c0.33703,0.08301 0.69336,-0.00518 0.95275,-0.23587l1.09916,-0.95857c0.8344,-0.7326 1.29055,-1.80479 1.23975,-2.91405l-0.22367,-5.11236l3.91095,-3.0802l4.65864,11.15773c0.21146,0.4959 0.7613,0.75433 1.27809,0.6007c0.14385,-0.04397 0.27677,-0.11803 0.38982,-0.21728l2.35168,-2.07051c0.91332,-0.81785 1.38711,-2.0188 1.27809,-3.23996l-1.15028,-13.23462l6.21791,-4.84396c1.00982,-0.78705 1.65065,-1.95541 1.77156,-3.22999c0.12097,-1.27458 -0.28872,-2.54263 -1.13251,-3.50555l-0.02556,-0.01917c-0.84373,-0.96144 -2.0466,-1.5325 -3.32495,-1.57844c-1.27841,-0.04595 -2.51911,0.43723 -3.42975,1.3356l-0.00003,0.00001zm-44.77149,41.49958c0.1981,0.05113 0.38982,0.09586 0.56236,0.12781l0.22367,0.03834c0.19171,0.03834 0.38982,0.07029 0.56236,0.08946c1.08721,0.14653 2.18841,0.15727 3.2783,0.03195l0.56236,-0.08308c1.99651,-0.32553 3.89057,-1.10855 5.53413,-2.28778l11.61145,-8.77409l-1.31643,-3.45084l-3.4764,-1.88518l-10.78708,8.79326c-0.87345,0.67093 -1.90212,1.11053 -2.99073,1.27809c-0.56236,0.08672 -1.13328,0.10391 -1.69986,0.05112l-0.39621,0l-0.2684,-0.05112l-0.16615,-0.03195c-0.27798,-0.05643 -0.55137,-0.1333 -0.81798,-0.23006c-2.19435,-0.76264 -3.84283,-2.59938 -4.36468,-4.86313c-1.86672,-2.00596 -3.47669,-4.23629 -4.79284,-6.63968c-0.21646,0.47321 -0.40218,0.95991 -0.55597,1.45702c-1.35487,4.16332 -0.48437,8.73044 2.30695,12.10351c1.39009,1.67615 3.1818,2.97322 5.20822,3.77036l0.00639,0c0.50944,0.20468 1.03263,0.37339 1.56566,0.50484l0.21088,0.05115z" stroke="null"/>
     </g>
    </g>
   </g>
  </g>
 </g>
</svg>