<svg width="80" height="80" viewBox="0 0 80 80" fill="none" xmlns="http://www.w3.org/2000/svg">
<circle cx="40" cy="40" r="39" fill="#F6F9F9" stroke="#21D1CC" stroke-width="2"/>
<path fill-rule="evenodd" clip-rule="evenodd" d="M31.8904 30.3945V27.7694C31.8904 25.6408 32.8535 23.8176 34.7795 23.2258C35.6893 23.0254 36.6237 22.9578 37.5531 23.0253H43.6684C44.4187 22.9804 45.1717 23.022 45.9123 23.1494C48.108 23.6649 49.1096 25.6599 49.1096 27.8267V30.404H43.9862C43.9862 28.1226 44.381 28.1226 42.0601 28.1226H38.4391C36.513 28.1226 37.0234 28.5331 37.0234 30.404L31.8904 30.3945ZM59 36.7422V52.855C59 56.1386 56.968 58 53.7418 58H26.69C23.6468 58 22 55.5659 22 52.8741V36.8854C22 33.5445 24.1283 31.769 27.316 31.769H53.7996C56.9391 31.7404 59 33.6495 59 36.7422ZM27.4508 39.7109V49.6095L31.8037 46.3545C32.0358 46.178 32.3202 46.0824 32.6127 46.0824C32.9052 46.0824 33.1896 46.178 33.4217 46.3545L37.4183 49.2754C37.6824 49.4693 38.0086 49.5617 38.3362 49.5354C38.6638 49.5091 38.9707 49.3658 39.1999 49.1322L45.5367 42.6222C45.6629 42.4964 45.8129 42.3965 45.9782 42.3284C46.1435 42.2603 46.3207 42.2252 46.4997 42.2252C46.6787 42.2252 46.856 42.2603 47.0213 42.3284C47.1865 42.3965 47.3366 42.4964 47.4628 42.6222L53.5203 49.0272V39.5772C53.5203 37.334 53.7418 37.1908 51.4786 37.1908H30.1184C27.4412 37.1908 27.4508 37.0381 27.4508 39.7109ZM32.0638 44.0827C32.6123 44.0827 33.1486 43.9214 33.6047 43.6194C34.0608 43.3173 34.4163 42.888 34.6262 42.3856C34.8361 41.8833 34.891 41.3305 34.784 40.7973C34.677 40.264 34.4129 39.7741 34.025 39.3897C33.6371 39.0052 33.1429 38.7434 32.6049 38.6373C32.0668 38.5312 31.5092 38.5857 31.0024 38.7937C30.4956 39.0018 30.0624 39.3542 29.7576 39.8063C29.4529 40.2583 29.2902 40.7899 29.2902 41.3336C29.2889 41.699 29.3613 42.061 29.5032 42.3983C29.6451 42.7356 29.8537 43.0413 30.1166 43.2975C30.3795 43.5536 30.6915 43.7551 31.0342 43.8899C31.3769 44.0248 31.7433 44.0903 32.1119 44.0827H32.0638Z" fill="#37416A"/>
</svg>
