<svg version="1.2" baseProfile="tiny-ps" xmlns="http://www.w3.org/2000/svg" viewBox="0 0 60 60" width="60" height="60">
	<title>Ellipse 15(3)-svg</title>
	<defs>
		<clipPath clipPathUnits="userSpaceOnUse" id="cp1">
			<path d="M15 15L45 15L45 45L15 45L15 15Z" />
		</clipPath>
	</defs>
	<style>
		tspan { white-space:pre }
		.shp0 { fill: #fd7269 } 
		.shp1 { fill: #ffffff } 
	</style>
	<path id="Layer" class="shp0" d="M30 60C13.41 60 0 46.59 0 30C0 13.41 13.41 0 30 0C46.59 0 60 13.41 60 30C60 46.59 46.59 60 30 60Z" />
	<g id="Clip-Path" clip-path="url(#cp1)">
		<g id="Layer">
			<path id="Layer" fill-rule="evenodd" class="shp1" d="M45 19.99C45 20.23 45 37.14 45 37.47C45 38.44 44.47 39.33 43.61 39.79C39.71 41.9 34.88 42.65 30.4 42.65C21.1 42.65 15.82 39.47 15.59 39.33C15.31 39.16 15.11 38.88 15.03 38.55C14.99 38.35 15 39.24 15 24.05C15 22.59 16.19 21.41 17.64 21.41C18.47 21.41 15.09 21.41 23.44 21.41C25.87 21.37 34.3 20.98 41.21 17.62C42.96 16.77 45 18.04 45 19.99ZM17.47 37.05C22.92 37.06 25.43 37.16 29.83 36.53C34.8 35.83 39.17 34.46 42.54 32.57L42.54 19.99C42.54 19.86 42.4 19.78 42.29 19.83C36.69 22.56 28.83 23.97 22.56 23.87C21.84 23.87 20.44 23.87 17.64 23.87C17.54 23.87 17.47 23.95 17.47 24.05L17.47 37.05ZM42.54 37.47L42.54 35.36C39.09 37.08 34.95 38.29 30.17 38.97C27.12 39.41 25.65 39.44 23.49 39.51C29.37 40.7 37.17 40.47 42.44 37.62C42.5 37.59 42.54 37.53 42.54 37.47Z" />
			<path id="Layer" fill-rule="evenodd" class="shp1" d="M25.64 30.15C25.64 27.74 27.6 25.79 30 25.79C32.41 25.79 34.36 27.74 34.36 30.15C34.36 32.55 32.41 34.51 30 34.51C27.6 34.51 25.64 32.55 25.64 30.15ZM28.1 30.15C28.1 31.19 28.95 32.04 30 32.04C31.05 32.04 31.9 31.19 31.9 30.15C31.9 29.1 31.05 28.25 30 28.25C28.95 28.25 28.1 29.1 28.1 30.15Z" />
			<path id="Layer" class="shp1" d="M38.14 25.75C38.41 25.75 38.34 25.74 40.4 25.06C41.05 24.84 41.4 24.14 41.18 23.5C40.97 22.85 40.27 22.5 39.62 22.72L37.75 23.35C37.1 23.56 36.75 24.26 36.97 24.9C37.14 25.42 37.62 25.75 38.14 25.75Z" />
			<path id="Layer" class="shp1" d="M19.99 35.76L21.87 35.76C22.55 35.76 23.1 35.21 23.1 34.53C23.1 33.85 22.55 33.29 21.87 33.29L19.99 33.29C19.31 33.29 18.76 33.85 18.76 34.53C18.76 35.21 19.31 35.76 19.99 35.76Z" />
		</g>
	</g>
</svg>