<svg width="30" height="30" viewBox="0 0 30 30" fill="none" xmlns="http://www.w3.org/2000/svg">
<path d="M19.3945 0H0V26.4258H10.6055V30H30V3.57422H19.3945V0ZM24.668 18.1515L19.3945 23.4249V20.6376L24.668 15.3642V18.1515ZM24.668 20.6376V24.668H20.6376L24.668 20.6376ZM24.668 12.878L19.3945 18.1515V15.3642L24.668 10.0907V12.878ZM19.3945 12.878V8.84766H23.4249L19.3945 12.878ZM1.75781 1.75781H17.6367V24.668H1.75781V1.75781ZM28.2422 5.33203V28.2422H12.3633V26.4258H26.4258V7.08984H19.3945V5.33203H28.2422Z" fill="#37416A"/>
<path d="M3.57422 3.57422H5.33203V7.08984H3.57422V3.57422Z" fill="#37416A"/>
<path d="M14.1211 19.3945H15.8789V22.9102H14.1211V19.3945Z" fill="#37416A"/>
</svg>
