<svg version="1.2" baseProfile="tiny-ps" xmlns="http://www.w3.org/2000/svg" viewBox="0 0 100 100" width="100" height="100">
	<title>Ellipse 15-svg</title>
	<style>
		tspan { white-space:pre }
		.shp0 { fill: #f6f9f9;stroke: #21d1cc;stroke-width: 2 } 
		.shp1 { fill: #21d1cc } 
	</style>
	<path id="Layer" class="shp0" d="M50 99C22.9 99 1 77.1 1 50C1 22.9 22.9 1 50 1C77.1 1 99 22.9 99 50C99 77.1 77.1 99 50 99Z" />
	<path id="Layer" fill-rule="evenodd" class="shp1" d="M64.95 52.44C67.03 52.03 69.02 52.54 69.13 52.57C69.74 52.73 70.11 53.34 69.97 53.95C69.94 54.11 69.12 57.68 66.49 59.24C65.35 59.92 64.09 60.12 63.01 60.12C62.26 60.12 61.59 60.02 61.1 59.93C60.55 60.52 59.94 61.08 59.3 61.57C59.85 61.73 60.4 61.97 60.91 62.31C63.47 64.01 64 67.51 64.03 67.66C64.11 68.25 63.74 68.81 63.16 68.97C63.09 68.98 62.16 69.22 60.93 69.22C59.74 69.22 58.27 69 57.02 68.17C55.42 67.11 54.61 65.35 54.22 64.14C52.88 64.52 51.46 64.72 50 64.72C48.52 64.72 47.08 64.51 45.72 64.12C45.34 65.33 44.55 67.05 43 68.11C41.71 68.99 40.19 69.21 38.98 69.21C37.81 69.21 36.93 69 36.86 68.98C36.28 68.84 35.9 68.28 35.98 67.69C36 67.54 36.5 64.03 39.04 62.3C39.55 61.95 40.1 61.71 40.65 61.54C40.04 61.06 39.46 60.53 38.92 59.96C38.45 60.05 37.77 60.14 37.02 60.14C35.91 60.14 34.62 59.95 33.48 59.26C30.86 57.68 30.06 54.1 30.03 53.95C29.89 53.33 30.27 52.72 30.88 52.57C30.99 52.54 32.97 52.04 35.05 52.46C34.87 51.57 34.76 50.67 34.74 49.77C33.55 49.29 31.56 48.23 30.62 46.3C29.26 43.54 30.57 40.25 30.62 40.11C30.85 39.56 31.44 39.26 32.01 39.42C32.15 39.45 34.95 40.23 36.53 42.33C36.98 41.5 37.51 40.7 38.12 39.94C37.63 38.83 36.92 36.66 37.59 34.56C38.53 31.63 41.76 30.16 41.9 30.1C42.44 29.86 43.08 30.06 43.39 30.58C43.46 30.71 45.23 33.78 44.29 36.71C43.5 39.16 41.11 40.59 40.28 41.02C33 49.37 38.99 62.37 50 62.37C60.98 62.37 66.94 49.44 59.79 41.1C59.1 40.76 56.5 39.29 55.68 36.7C54.76 33.76 56.54 30.7 56.62 30.57C56.93 30.06 57.57 29.86 58.11 30.1C58.25 30.17 61.47 31.65 62.39 34.59C63.04 36.66 62.34 38.78 61.85 39.91C62.47 40.68 63.01 41.49 63.47 42.33C65.04 40.22 67.81 39.34 67.95 39.29C68.53 39.11 69.15 39.41 69.38 39.98C69.44 40.11 70.74 43.41 69.38 46.17C68.43 48.1 66.43 49.22 65.25 49.74C65.23 50.64 65.13 51.54 64.95 52.44ZM38.59 66.86C39.49 66.91 40.73 66.82 41.68 66.17C42.62 65.53 43.16 64.41 43.44 63.55C42.55 63.51 41.31 63.59 40.36 64.24C39.41 64.88 38.88 66.01 38.59 66.86ZM41.84 32.84C41.1 33.35 40.18 34.18 39.82 35.28C39.47 36.37 39.74 37.58 40.04 38.43C40.78 37.92 41.7 37.09 42.06 35.99C42.41 34.9 42.14 33.69 41.84 32.84ZM32.48 42.1C32.31 42.98 32.21 44.23 32.72 45.27C33.15 46.14 34.04 46.81 34.89 47.26C34.98 46.62 35.12 45.98 35.29 45.36C35.24 44.95 35.12 44.57 34.96 44.24C34.45 43.19 33.33 42.5 32.48 42.1ZM32.72 54.66C33.08 55.53 33.7 56.65 34.69 57.25C35.48 57.72 36.43 57.83 37.24 57.8C36.81 57.12 36.42 56.41 36.08 55.65C36.02 55.52 35.96 55.38 35.91 55.25L35.9 55.24C34.92 54.65 33.64 54.59 32.72 54.66ZM58.31 66.21C59.27 66.85 60.51 66.92 61.41 66.86C61.11 66.01 60.57 64.9 59.61 64.26C58.66 63.63 57.41 63.56 56.52 63.62C56.81 64.46 57.36 65.58 58.31 66.21ZM67.52 42.01C66.67 42.44 65.56 43.18 65.04 44.24C64.87 44.57 64.76 44.96 64.7 45.38C64.87 45.98 65 46.59 65.09 47.2C65.95 46.72 66.85 46.02 67.28 45.14C67.78 44.12 67.69 42.89 67.52 42.01ZM58.15 32.84C57.85 33.69 57.57 34.9 57.92 36C58.26 37.09 59.18 37.93 59.92 38.44C60.22 37.6 60.5 36.39 60.15 35.29C59.81 34.2 58.89 33.36 58.15 32.84ZM62.77 57.76C63.57 57.79 64.51 57.69 65.29 57.23C66.28 56.64 66.91 55.52 67.28 54.65C66.35 54.57 65.09 54.62 64.1 55.21C64.04 55.36 63.97 55.51 63.91 55.66C63.58 56.4 63.2 57.1 62.77 57.76ZM40.36 47.4C40.05 47.09 39.93 46.62 40.07 46.2C40.21 45.78 40.57 45.47 41.01 45.41L46.48 44.58L48.95 39.64C49.15 39.24 49.56 38.99 50 38.99C50.44 38.99 50.85 39.24 51.05 39.64L53.52 44.58L58.99 45.41C59.43 45.47 59.79 45.78 59.93 46.2C60.07 46.62 59.95 47.09 59.64 47.4L55.7 51.28L56.6 56.73C56.68 57.17 56.5 57.61 56.14 57.87C55.93 58.02 55.69 58.1 55.45 58.1C55.26 58.1 55.08 58.05 54.91 57.97L50 55.42L45.09 57.97C44.7 58.17 44.22 58.14 43.86 57.87C43.5 57.61 43.32 57.17 43.4 56.73L44.3 51.28L40.36 47.4ZM48.3 46.17C48.13 46.52 47.81 46.75 47.43 46.81L43.68 47.37L46.38 50.04C46.65 50.3 46.78 50.69 46.71 51.06L46.09 54.81L49.46 53.06C49.63 52.97 49.81 52.93 50 52.93C50.19 52.93 50.37 52.97 50.54 53.06L53.91 54.81L53.29 51.06C53.22 50.69 53.35 50.3 53.62 50.04L56.32 47.37L52.57 46.81C52.19 46.75 51.87 46.52 51.7 46.17L50 42.78L48.3 46.17Z" />
</svg>