<svg width="80" height="81" viewBox="0 0 80 81" fill="none" xmlns="http://www.w3.org/2000/svg">
<path d="M2.34375 75.3068H16.3623L44.2896 80.0711C44.8871 80.1727 45.5194 80.0463 46.051 79.6703C46.059 79.6648 46.0669 79.66 46.0748 79.654L79.0436 55.6662C80.0751 54.916 80.3082 53.4845 79.5667 52.4507C75.9229 47.3715 68.6682 46.0379 63.3948 49.4789L55.0385 54.9366C53.7573 53.2137 51.6962 52.0935 49.375 52.0935H41.7688C40.4749 52.0935 39.9469 51.1673 39.1199 50.5549C32.9407 45.1692 23.6218 45.1692 17.4426 50.5549L15.6781 52.0935H2.34375C1.04919 52.0935 0 53.1327 0 54.4149V72.9854C0 74.2676 1.04919 75.3068 2.34375 75.3068ZM4.6875 56.7363H16.5625C17.1326 56.7363 17.6831 56.5301 18.111 56.1571L20.5396 54.0407C24.953 50.1934 31.6095 50.1934 36.023 54.0407C36.6431 54.4548 38.3569 56.7363 41.7688 56.7363H49.375C50.6671 56.7363 51.7188 57.7773 51.7188 59.0576C51.7188 60.3374 50.6671 61.3784 49.375 61.3784H30.625C29.3305 61.3784 28.2813 62.4182 28.2813 63.6998C28.2813 64.982 29.3305 66.0212 30.625 66.0212H49.375C53.0603 66.0212 56.0901 63.1981 56.3812 59.6211L65.9747 53.3551C68.4906 51.7138 71.7493 51.8656 74.093 53.5075L44.1028 75.328C15.3345 70.4325 16.944 70.664 16.5625 70.664H4.6875V56.7363Z" fill="#21D1CC"/>
<path d="M61.0938 21.9164C61.0938 10.3107 51.6309 0.869141 40 0.869141C28.3691 0.869141 18.9062 10.3107 18.9062 21.9164C18.9062 33.4363 28.3691 42.809 40 42.809C51.6309 42.809 61.0938 33.4363 61.0938 21.9164ZM56.4063 21.9164C56.4063 30.0885 50.2838 36.8695 42.3438 37.9993V33.7954C45.0586 32.83 47.0062 30.2559 47.0062 27.2393C47.0062 23.3993 43.8519 20.2751 39.975 20.2751C38.6823 20.2751 37.6312 19.2335 37.6312 17.9537C37.6312 16.6733 38.6823 15.6323 39.975 15.6323C41.2671 15.6323 42.3187 16.6733 42.3187 17.9537C42.3187 19.2353 43.3679 20.2751 44.6625 20.2751C45.9564 20.2751 47.0062 19.2353 47.0062 17.9537C47.0062 14.9365 45.0586 12.3625 42.3438 11.397V5.67998C50.2838 6.82073 56.4063 13.6664 56.4063 21.9164ZM23.5938 21.9164C23.5938 13.6664 29.7162 6.82073 37.6563 5.67998V11.3801C34.9152 12.3316 32.9437 14.9178 32.9437 17.9537C32.9437 21.7937 36.098 24.9173 39.975 24.9173C41.2671 24.9173 42.3187 25.9589 42.3187 27.2387C42.3187 28.5191 41.2671 29.5601 39.975 29.5601C38.6823 29.5601 37.6312 28.5191 37.6312 27.2387C37.6312 25.9571 36.5814 24.9173 35.2875 24.9173C33.9929 24.9173 32.9437 25.9571 32.9437 27.2387C32.9437 30.2747 34.9152 32.8608 37.6563 33.8124V37.9993C29.7162 36.8695 23.5938 30.0885 23.5938 21.9164Z" fill="#FD7269"/>
</svg>
