<svg width="12" height="12" viewBox="0 0 12 12" fill="none" xmlns="http://www.w3.org/2000/svg">
<path d="M6.04041 0.29285C5.64994 -0.0976168 5.01674 -0.0976168 4.62621 0.29285C4.23567 0.683318 4.23567 1.31652 4.62621 1.70705L7.91914 4.99999H1C0.447734 4.99999 0 5.44772 0 5.99999C0 6.55226 0.447734 6.99999 1 6.99999H7.91914L4.62627 10.2929C4.23574 10.6834 4.23574 11.3166 4.62627 11.7071C4.82147 11.9023 5.07741 12 5.33334 12C5.58927 12 5.84521 11.9023 6.04041 11.7071L11.0404 6.70706C11.4309 6.31659 11.4309 5.68339 11.0404 5.29286L6.04041 0.29285Z" fill="#37416A"/>
</svg>
