<svg width="26" height="26" viewBox="0 0 26 26" fill="none" xmlns="http://www.w3.org/2000/svg">
<path d="M24.9167 20.5833H22.0317C21.5627 19.0223 20.1283 17.875 18.4167 17.875C16.705 17.875 15.2717 19.0223 14.8016 20.5833H1.08332C0.485316 20.5833 0 21.0687 0 21.6667C0 22.2647 0.485316 22.75 1.08332 22.75H14.8016C15.2706 24.3111 16.705 25.4583 18.4166 25.4583C20.1283 25.4583 21.5616 24.3111 22.0317 22.75H24.9166C25.5157 22.75 25.9999 22.2647 25.9999 21.6667C25.9999 21.0687 25.5157 20.5833 24.9167 20.5833ZM18.4167 23.2917C17.5208 23.2917 16.7917 22.5626 16.7917 21.6667C16.7917 20.7707 17.5208 20.0417 18.4167 20.0417C19.3126 20.0417 20.0417 20.7707 20.0417 21.6667C20.0417 22.5626 19.3126 23.2917 18.4167 23.2917Z" fill="#37416A"/>
<path d="M24.9167 3.24982H22.0317C21.5616 1.68875 20.1283 0.541504 18.4167 0.541504C16.705 0.541504 15.2717 1.68875 14.8016 3.24982H1.08332C0.485316 3.24982 0 3.73514 0 4.33314C0 4.93114 0.485316 5.41645 1.08332 5.41645H14.8016C15.2717 6.97757 16.705 8.12482 18.4167 8.12482C20.1284 8.12482 21.5616 6.97757 22.0317 5.4165H24.9167C25.5157 5.4165 26 4.93119 26 4.33319C26 3.73519 25.5157 3.24982 24.9167 3.24982ZM18.4167 5.95814C17.5208 5.95814 16.7917 5.22907 16.7917 4.33314C16.7917 3.4372 17.5208 2.70814 18.4167 2.70814C19.3126 2.70814 20.0417 3.4372 20.0417 4.33314C20.0417 5.22907 19.3126 5.95814 18.4167 5.95814Z" fill="#37416A"/>
<path d="M24.9167 11.9168H11.1984C10.7282 10.3557 9.295 9.2085 7.58337 9.2085C5.87173 9.2085 4.43843 10.3557 3.9683 11.9168H1.08332C0.485316 11.9168 0 12.4021 0 13.0001C0 13.5981 0.485316 14.0835 1.08332 14.0835H3.96825C4.43843 15.6445 5.87168 16.7918 7.58332 16.7918C9.29495 16.7918 10.7283 15.6445 11.1984 14.0835H24.9166C25.5157 14.0835 25.9999 13.5981 25.9999 13.0001C26 12.4021 25.5157 11.9168 24.9167 11.9168ZM7.58332 14.6251C6.68738 14.6251 5.95832 13.8961 5.95832 13.0001C5.95832 12.1042 6.68738 11.3751 7.58332 11.3751C8.47925 11.3751 9.20832 12.1042 9.20832 13.0001C9.20832 13.8961 8.47925 14.6251 7.58332 14.6251Z" fill="#37416A"/>
</svg>
