<svg width="24" height="22" viewBox="0 0 24 22" fill="none" xmlns="http://www.w3.org/2000/svg">
<path fill-rule="evenodd" clip-rule="evenodd" d="M6.4 0C5.07452 0 4 1.47746 4 3.3V9.01151C1.76628 9.19207 0 11.4743 0 14.2632V16.8947C0 18.0574 0.767512 19 1.71429 19H3.3L3.3 20.9C3.3 21.5075 3.79249 22 4.4 22C5.00751 22 5.5 21.5075 5.5 20.9V19H19.0004V21.1746C19.0004 21.6302 19.3698 21.9996 19.8254 21.9996C20.281 21.9996 20.6504 21.6302 20.6504 21.1746V19H22.2857C23.2325 19 24 18.0574 24 16.8947V14.2632C24 11.4743 22.2337 9.19207 20 9.01151V3.3C20 1.47746 18.9255 0 17.6 0H6.4ZM16.5 8.8H18.4V3.3C18.4 2.69249 18.0418 2.2 17.6 2.2H6.4C5.95817 2.2 5.6 2.69249 5.6 3.3V8.8H7.7V7.7C7.7 5.87746 9.17746 4.4 11 4.4H13.2C15.0225 4.4 16.5 5.87746 16.5 7.7V8.8ZM9.9 8.8H14.3V7.7C14.3 7.09249 13.8075 6.6 13.2 6.6H11C10.3925 6.6 9.9 7.09249 9.9 7.7V8.8ZM4.28571 11.1053C2.86555 11.1053 1.71429 12.5191 1.71429 14.2632V16.8947H22.2857V14.2632C22.2857 12.5191 21.1344 11.1053 19.7143 11.1053H4.28571Z" fill="#37416A"/>
</svg>
