<svg width="80" height="81" viewBox="0 0 80 81" fill="none" xmlns="http://www.w3.org/2000/svg">
<path d="M69.3521 22.2347H57.929V13.5633C57.929 10.544 56.2094 8.08439 53.8324 7.42622V6.14379C53.8324 3.2407 51.4479 0.878906 48.5168 0.878906H31.3255C28.3945 0.878906 26.0099 3.2407 26.0099 6.14379V7.42622C23.6329 8.08439 21.9133 10.5442 21.9133 13.5633V22.2347H10.4901C4.70579 22.2347 0 26.8956 0 32.6247V69.7256C0 75.4547 4.70579 80.1157 10.4901 80.1157H69.3521C75.1364 80.1157 79.8422 75.4548 79.8422 69.7256V32.6247C79.8422 26.8957 75.1364 22.2347 69.3521 22.2347ZM60.1332 75.4719H19.709C18.6266 68.0802 12.455 62.2217 4.68844 61.2281V41.1222C12.455 40.1286 18.6266 34.2701 19.709 26.8784H60.1332C61.2156 34.2701 67.3872 40.1286 75.1537 41.1222V61.2281C67.3872 62.2218 61.2156 68.0802 60.1332 75.4719ZM75.1537 32.6247V36.4232C69.9891 35.5242 65.8997 31.715 64.8926 26.8784H69.3521C72.5512 26.8784 75.1537 29.4563 75.1537 32.6247ZM30.6984 6.14379C30.6984 5.80124 30.9797 5.52261 31.3255 5.52261H48.5168C48.8626 5.52261 49.144 5.80124 49.144 6.14379V10.848C49.144 11.1906 48.8626 11.4693 48.5168 11.4693H46.4679C46.2007 10.4782 45.2905 9.7473 44.2056 9.7473C43.1207 9.7473 42.2105 10.4784 41.9433 11.4693H37.899C37.6318 10.4782 36.7216 9.7473 35.6367 9.7473C34.5518 9.7473 33.6416 10.4784 33.3744 11.4693H31.3255C30.9797 11.4693 30.6984 11.1906 30.6984 10.848V6.14379ZM26.6018 13.5633C26.6018 13.4657 26.6075 13.3737 26.6157 13.2844C27.5049 14.9639 29.2818 16.1129 31.3255 16.1129H48.5168C50.5605 16.1129 52.3374 14.9639 53.2267 13.2844C53.2348 13.3737 53.2406 13.4657 53.2406 13.5633V22.2347H26.6018V13.5633ZM10.4901 26.8784H14.9496C13.9425 31.715 9.85308 35.5242 4.68844 36.4232V32.6247C4.68844 29.4563 7.29116 26.8784 10.4901 26.8784ZM4.68844 69.7256V65.927C9.85308 66.826 13.9425 70.6353 14.9496 75.4719H10.4901C7.29116 75.4719 4.68844 72.8941 4.68844 69.7256ZM69.3521 75.4719H64.8926C65.8997 70.6353 69.9891 66.826 75.1537 65.927V69.7256C75.1537 72.8941 72.5512 75.4719 69.3521 75.4719Z" fill="#21D1CC"/>
<path d="M66.239 43.8248C64.7706 42.3599 62.7141 41.5195 60.5971 41.5195C58.6609 41.5195 56.8398 42.2139 55.4431 43.3931C54.0462 42.2138 52.2254 41.5195 50.2891 41.5195C46.0093 41.5195 42.503 44.8831 42.4728 49.0174C42.4513 51.965 44.5478 55.0335 48.7042 58.138C51.501 60.2271 54.2702 61.6196 54.3868 61.6778C54.7189 61.8439 55.081 61.9268 55.4431 61.9268C55.8074 61.9268 56.1718 61.8428 56.5055 61.6747C56.6211 61.6165 59.3706 60.2241 62.1566 58.1355C66.287 55.0394 68.3921 51.9829 68.4135 49.051C68.4277 47.094 67.6555 45.2379 66.239 43.8248ZM55.4487 56.9656C54.4918 56.4266 53.0065 55.5354 51.5273 54.4306C48.7838 52.3813 47.1516 50.3705 47.1613 49.0512C47.1728 47.4588 48.5761 46.1634 50.2892 46.1634C51.6228 46.1634 52.8104 46.9449 53.2444 48.108C53.5846 49.0198 54.4621 49.625 55.4432 49.625C56.4245 49.625 57.3021 49.0196 57.6421 48.108C58.0761 46.9449 59.2637 46.1634 60.5972 46.1634C61.4738 46.1634 62.3174 46.5035 62.9121 47.0966C63.4417 47.6249 63.7305 48.3073 63.7254 49.0177C63.7079 51.3802 59.1073 54.9157 55.4487 56.9656Z" fill="#FD7269"/>
<path d="M40.0794 33.5176H29.5747C28.2801 33.5176 27.2305 34.5571 27.2305 35.8394C27.2305 37.1217 28.2801 38.1613 29.5747 38.1613H40.0794C41.374 38.1613 42.4236 37.1217 42.4236 35.8394C42.4236 34.5571 41.374 33.5176 40.0794 33.5176Z" fill="#FD7269"/>
<path d="M24.9158 44.1915C24.4758 43.7538 23.8779 43.5078 23.2545 43.5078C22.6309 43.5078 22.033 43.7539 21.5932 44.1915L12.7844 52.9559C11.8739 53.8619 11.8739 55.3262 12.7844 56.232L27.8853 71.2566C28.3252 71.6943 28.923 71.9404 29.5465 71.9404C30.1701 71.9404 30.7679 71.6943 31.2078 71.2566L40.0168 62.4922C40.9273 61.5862 40.9273 60.1219 40.0168 59.2161L24.9158 44.1915ZM29.5464 66.3274L17.7534 54.5939L23.2543 49.1207L35.0473 60.8542L29.5464 66.3274Z" fill="#FD7269"/>
</svg>
