<svg width="16" height="20" viewBox="0 0 16 20" fill="none" xmlns="http://www.w3.org/2000/svg">
<path fill-rule="evenodd" clip-rule="evenodd" d="M3 6.3V1C3 0.5 2.6 0 2 0C1.5 0 1 0.5 1 1V6.3C0.4 6.6 0 7.2 0 8C0 8.7 0.4 9.4 1 9.7V19C1 19.6 1.5 20 2 20C2.6 20 3 19.6 3 19V9.7C3.6 9.4 4 8.7 4 8C4 7.2 3.6 6.6 3 6.3ZM15 3.3V1C15 0.5 14.6 0 14 0C13.5 0 13 0.5 13 1V3.3C12.4 3.6 12 4.2 12 5C12 5.7 12.4 6.4 13 6.7V19C13 19.6 13.5 20 14 20C14.6 20 15 19.6 15 19V6.7C15.6 6.4 16 5.7 16 5C16 4.2 15.6 3.6 15 3.3ZM8.9999 1V11.3C9.5999 11.6 9.99989 12.2 9.99989 13C9.99989 13.7 9.5999 14.4 8.9999 14.7V19C8.9999 19.6 8.5999 20 7.9999 20C7.4999 20 6.9999 19.6 6.9999 19V14.7C6.39991 14.4 5.99991 13.7 5.99991 13C5.99991 12.2 6.39991 11.6 6.9999 11.3V1C6.9999 0.5 7.4999 0 7.9999 0C8.5999 0 8.9999 0.5 8.9999 1Z" fill="#0F1920"/>
</svg>
