<svg width="30" height="30" viewBox="0 0 30 30" fill="none" xmlns="http://www.w3.org/2000/svg">
<g clip-path="url(#clip0_225:2466)">
<path d="M26.8536 15.8412C28.5243 13.3806 26.7587 10.013 23.7613 10.013C20.7647 10.013 18.9986 13.3794 20.6682 15.8402C20.0949 16.1681 19.5961 16.5712 19.1663 17.0393C18.1139 15.9938 16.8563 15.1549 15.4601 14.5883C16.7031 13.4471 17.4836 11.8098 17.4836 9.99342C17.4836 6.55349 14.685 3.75488 11.2451 3.75488C7.80514 3.75488 5.00647 6.55343 5.00647 9.99342C5.00647 11.8098 5.78696 13.4472 7.02994 14.5883C2.9119 16.2595 0 20.3022 0 25.0129C0 25.6934 0.551614 26.245 1.23207 26.245C1.91252 26.245 2.46413 25.6934 2.46413 25.0129C2.46413 20.1711 6.40323 16.232 11.2451 16.232C16.0869 16.232 20.026 20.1711 20.026 25.0129C20.026 25.6934 20.5776 26.245 21.2581 26.245C21.9385 26.245 22.4901 25.6934 22.4901 25.0129C22.4901 22.8006 21.8476 20.7356 20.7398 18.9943C21.9629 17.3527 23.8388 17.4836 23.7652 17.4836C25.8448 17.4858 27.536 19.1782 27.536 21.2583V25.013C27.536 25.6934 28.0876 26.245 28.7681 26.245C29.4485 26.245 30.0001 25.6934 30.0001 25.013V21.2583C30 18.9426 28.7319 16.9176 26.8536 15.8412ZM7.47061 9.99342C7.47061 7.91223 9.16382 6.21902 11.245 6.21902C13.3262 6.21902 15.0195 7.91223 15.0195 9.99342C15.0195 12.0747 13.3263 13.7678 11.2451 13.7678C9.16388 13.7678 7.47061 12.0746 7.47061 9.99342ZM22.4901 13.7483C22.4901 13.0474 23.0604 12.4771 23.7613 12.4771C24.4622 12.4771 25.0325 13.0474 25.0325 13.7483C25.0325 14.4462 24.4654 15.0193 23.7611 15.0193C23.0638 15.0193 22.4901 14.4527 22.4901 13.7483Z" fill="#37416A"/>
</g>
<defs>
<clipPath id="clip0_225:2466">
<rect width="30" height="30" fill="white"/>
</clipPath>
</defs>
</svg>
