<svg width="80" height="81" viewBox="0 0 80 81" fill="none" xmlns="http://www.w3.org/2000/svg">
<path d="M8.26009 60.2815C8.27474 60.296 8.29183 60.3041 8.30485 60.3178C8.32113 60.3323 8.33171 60.3524 8.34798 60.367C8.41797 60.4314 8.49854 60.4774 8.5734 60.5354C8.66129 60.6031 8.74512 60.6757 8.83789 60.7337C8.92985 60.7917 9.02669 60.8345 9.12109 60.8804C9.22119 60.9304 9.31966 60.9844 9.42464 61.0239C9.52148 61.0601 9.62158 61.0835 9.72005 61.1101C9.82829 61.1399 9.9349 61.1746 10.0464 61.1923C10.1449 61.2093 10.2433 61.2125 10.3434 61.2205C10.4346 61.2286 10.5249 61.2471 10.6169 61.2471C10.6396 61.2471 10.6616 61.2407 10.6844 61.2407C10.7812 61.2391 10.8781 61.2238 10.9749 61.2125C11.0897 61.2012 11.2044 61.1907 11.32 61.1657C11.4152 61.1464 11.5063 61.1117 11.6016 61.0835C11.7131 61.0489 11.8229 61.019 11.9312 60.9731C12.0264 60.9336 12.1151 60.8788 12.2062 60.8296C12.3063 60.7764 12.4064 60.7273 12.5 60.6628C12.5928 60.5983 12.6782 60.5209 12.7661 60.4468C12.8345 60.3887 12.9102 60.3428 12.9744 60.2783C12.9899 60.263 12.998 60.2469 13.0135 60.2315C13.0282 60.2154 13.0485 60.2057 13.0632 60.1888C13.9746 59.2167 15.2881 58.6573 16.6667 58.6573C19.423 58.6573 21.6667 60.8788 21.6667 63.6096C21.6667 64.9743 21.1011 66.2752 20.1164 67.1796C20.1001 67.1949 20.0895 67.2126 20.0749 67.228C20.0594 67.2425 20.0415 67.2521 20.0269 67.2674C19.9618 67.3319 19.9146 67.4061 19.8568 67.4738C19.7811 67.5608 19.703 67.6455 19.6379 67.7382C19.5768 67.8268 19.5296 67.9211 19.4767 68.0154C19.423 68.1106 19.3644 68.2049 19.3229 68.3056C19.2798 68.4048 19.2529 68.5055 19.2196 68.6079C19.1878 68.7103 19.1512 68.8094 19.1284 68.9134C19.1064 69.0174 19.0983 69.1197 19.0861 69.2253C19.0747 69.3309 19.0584 69.4365 19.0568 69.5421C19.0552 69.6445 19.0666 69.7468 19.0747 69.8492C19.0828 69.958 19.0861 70.0652 19.1064 70.1724C19.1252 70.2732 19.1561 70.3707 19.1829 70.4698C19.2131 70.5754 19.2383 70.6826 19.2782 70.7866C19.3164 70.8841 19.3685 70.9752 19.4149 71.0687C19.4645 71.1679 19.5117 71.2686 19.5711 71.3645C19.6281 71.454 19.6997 71.5362 19.7664 71.6201C19.825 71.695 19.873 71.7756 19.9398 71.8465C19.9544 71.8635 19.9731 71.8732 19.9878 71.8893C20.0033 71.9046 20.0114 71.9223 20.0269 71.9376L27.3096 79.1509C27.9598 79.7949 28.8135 80.1173 29.6663 80.1173C30.52 80.1173 31.3713 79.7949 32.0231 79.1493L79.0234 32.5981C79.6484 31.9791 80 31.1384 80 30.2638C80 29.3885 79.6484 28.5486 79.0234 27.9296L71.7399 20.7155C71.7244 20.701 71.7082 20.6929 71.6951 20.6792C71.6781 20.6647 71.6683 20.6446 71.6512 20.6301C71.5796 20.564 71.4998 20.518 71.425 20.46C71.3379 20.3923 71.2549 20.3214 71.1629 20.2633C71.0685 20.2037 70.97 20.1593 70.8699 20.1118C70.7731 20.0634 70.6779 20.011 70.5778 19.9731C70.4761 19.9353 70.3711 19.9103 70.2661 19.8821C70.1628 19.8539 70.0635 19.8224 69.9585 19.8047C69.8535 19.7861 69.7485 19.7829 69.6411 19.7749C69.5329 19.7668 69.4279 19.7547 69.3197 19.7563C69.2163 19.7579 69.1146 19.7749 69.0112 19.7861C68.9014 19.7982 68.7931 19.8063 68.6849 19.8297C68.5832 19.8506 68.4863 19.8853 68.3879 19.9167C68.2812 19.9498 68.1763 19.978 68.0729 20.0223C67.9744 20.0634 67.8817 20.1198 67.7865 20.173C67.6912 20.2254 67.5928 20.2714 67.5033 20.3343C67.408 20.3987 67.3218 20.4777 67.2314 20.5543C67.1647 20.6099 67.0898 20.6567 67.0264 20.7187C67.0117 20.734 67.0028 20.7502 66.9881 20.7655C66.9735 20.7816 66.9531 20.7921 66.9385 20.8082C66.0246 21.7803 64.7111 22.3405 63.3333 22.3405C60.5762 22.3405 58.3333 20.1182 58.3333 17.3882C58.3333 16.0228 58.8981 14.7218 59.8828 13.8174C59.8999 13.8021 59.9097 13.7844 59.9251 13.7691C59.9398 13.7546 59.9585 13.7449 59.9731 13.7296C60.0382 13.6651 60.0846 13.5909 60.1432 13.5232C60.2181 13.4362 60.2962 13.3515 60.3613 13.2588C60.4232 13.1702 60.4696 13.0759 60.5233 12.9816C60.5762 12.8865 60.6348 12.7922 60.6763 12.6914C60.7202 12.5923 60.7463 12.4915 60.7796 12.3891C60.8114 12.2868 60.848 12.1876 60.8716 12.0836C60.8927 11.9797 60.9017 11.8773 60.9131 11.7717C60.9245 11.6661 60.9416 11.5605 60.9432 11.4549C60.9448 11.3526 60.9334 11.2502 60.9245 11.1478C60.9163 11.039 60.9131 10.9318 60.8927 10.8246C60.8748 10.7239 60.8431 10.6263 60.8162 10.5272C60.7861 10.4216 60.7617 10.3144 60.7218 10.2104C60.6828 10.1129 60.6315 10.0218 60.5851 9.9283C60.5347 9.82916 60.4883 9.7284 60.4281 9.63248C60.3711 9.54301 60.2995 9.4608 60.2327 9.37697C60.175 9.30201 60.1261 9.2214 60.0594 9.15047C60.0448 9.13435 60.0244 9.12226 60.0098 9.10614C59.9967 9.09083 59.9862 9.0747 59.9715 9.05939L52.688 1.84615C51.3867 0.556491 49.2765 0.556491 47.9744 1.84615L0.974935 48.3973C0.351562 49.0179 0 49.8586 0 50.7332C0 51.6085 0.351562 52.4484 0.976562 53.0675L8.26009 60.2815ZM50.3328 8.85143L53.1917 11.683C52.2062 13.3999 51.6667 15.3674 51.6667 17.3882C51.6667 23.7599 56.9019 28.9435 63.3333 28.9435C65.3735 28.9435 67.36 28.4083 69.095 27.433L71.9531 30.2638L29.6663 72.1456L26.8083 69.314C27.793 67.5979 28.3333 65.6296 28.3333 63.6096C28.3333 57.2371 23.0981 52.0543 16.6667 52.0543C14.6265 52.0543 12.64 52.5887 10.9049 53.564L8.04688 50.7332L50.3328 8.85143Z" fill="#21D1CC"/>
<path d="M31.6693 45.4514C32.5221 45.4514 33.3742 45.1289 34.026 44.4833L45.6927 32.928C46.994 31.6391 46.994 29.5491 45.6927 28.2602C44.3906 26.9706 42.2804 26.9706 40.9792 28.2602L29.3125 39.8155C28.0104 41.1044 28.0104 43.1945 29.3125 44.4833C29.9644 45.1289 30.8156 45.4514 31.6693 45.4514Z" fill="#FD7269"/>
<path d="M42.6446 43.1157L37.6445 48.068C36.3424 49.3569 36.3424 51.447 37.6445 52.7359C38.2964 53.3815 39.1477 53.7039 40.0014 53.7039C40.8542 53.7039 41.7063 53.3815 42.3582 52.7359L47.3583 47.7835C48.6596 46.4946 48.6596 44.4046 47.3583 43.1157C46.0562 41.826 43.9459 41.826 42.6446 43.1157Z" fill="#FD7269"/>
</svg>
