<svg version="1.2" baseProfile="tiny-ps" xmlns="http://www.w3.org/2000/svg" viewBox="0 0 30 30" width="30" height="30">
	<title>wallet_inactive-svg</title>
	<style>
		tspan { white-space:pre }
		.shp0 { fill: #21d1cc } 
	</style>
	<path id="Layer" fill-rule="evenodd" class="shp0" d="M30 10L30 25C30 27.07 28.32 28.75 26.25 28.75L3.75 28.75C1.68 28.75 0 27.07 0 25L0 5C0 2.93 1.68 1.25 3.75 1.25L22.5 1.25C24.57 1.25 26.25 2.93 26.25 5L26.25 6.25C28.32 6.25 30 7.93 30 10ZM2.5 5C2.5 5.69 3.06 6.25 3.75 6.25L23.75 6.25L23.75 5C23.75 4.31 23.19 3.75 22.5 3.75L3.75 3.75C3.06 3.75 2.5 4.31 2.5 5ZM27.5 25L27.5 21.88L20.63 21.88C18.21 21.88 16.25 19.91 16.25 17.5C16.25 15.09 18.21 13.13 20.63 13.13L27.5 13.13L27.5 10C27.5 9.31 26.94 8.75 26.25 8.75L3.75 8.75C3.31 8.75 2.89 8.67 2.5 8.54L2.5 25C2.5 25.69 3.06 26.25 3.75 26.25L26.25 26.25C26.94 26.25 27.5 25.69 27.5 25ZM27.5 15.63L24.57 15.63C24.84 16.19 25 16.83 25 17.5C25 18.16 24.85 18.79 24.57 19.38L27.5 19.38L27.5 15.63ZM20.63 19.38C21.13 19.38 21.6 19.18 21.96 18.82C22.3 18.47 22.5 18 22.5 17.5C22.5 16.47 21.66 15.63 20.63 15.63C19.59 15.63 18.75 16.47 18.75 17.5C18.75 18.53 19.59 19.38 20.63 19.38Z" />
</svg>