<svg width="30" height="30" viewBox="0 0 30 30" fill="none" xmlns="http://www.w3.org/2000/svg">
<path d="M26.25 6.25V5C26.25 2.93182 24.5682 1.25 22.5 1.25H3.75C1.68182 1.25 0 2.93182 0 5V25C0 27.0682 1.68182 28.75 3.75 28.75H26.25C28.3182 28.75 30 27.0682 30 25V10C30 7.93182 28.3182 6.25 26.25 6.25ZM3.75 3.75H22.5C23.1894 3.75 23.75 4.31061 23.75 5V6.25H3.75C3.06061 6.25 2.5 5.68939 2.5 5C2.5 4.31061 3.06061 3.75 3.75 3.75ZM26.25 26.25H3.75C3.06061 26.25 2.5 25.6894 2.5 25V8.53577C2.89124 8.67432 3.31177 8.75 3.75 8.75H26.25C26.9394 8.75 27.5 9.31061 27.5 10V13.125H20.625C18.2126 13.125 16.25 15.0882 16.25 17.5C16.25 19.9118 18.2126 21.875 20.625 21.875H27.5V25C27.5 25.6894 26.9394 26.25 26.25 26.25ZM27.5 19.375H24.5749C24.8499 18.7943 25 18.1589 25 17.5C25 16.8286 24.8431 16.1945 24.5718 15.625H27.5V19.375ZM18.75 17.5C18.75 16.4664 19.5914 15.625 20.625 15.625C21.6586 15.625 22.5 16.4664 22.5 17.5C22.5 18.0005 22.3044 18.4744 21.958 18.8239C21.5994 19.1794 21.1255 19.375 20.625 19.375C19.5914 19.375 18.75 18.5336 18.75 17.5Z" fill="#37416A"/>
</svg>
